<?xml version="1.0" encoding="utf-8"?>
<!-- Generator: Adobe Illustrator 25.0.0, SVG Export Plug-In . SVG Version: 6.00 Build 0)  -->
<svg version="1.1" id="Layer_1" xmlns="http://www.w3.org/2000/svg" xmlns:xlink="http://www.w3.org/1999/xlink" x="0px" y="0px"
	 viewBox="0 0 1553.3 1667.3" style="enable-background:new 0 0 1553.3 1667.3;" xml:space="preserve">
<style type="text/css">
	.st0{fill:#005873;}
	.st1{fill:#005873;stroke:#006666;stroke-miterlimit:10;}
	.st2{fill:none;stroke:#005873;stroke-width:10;stroke-miterlimit:10;}
</style>
<path class="st0" d="M1408.1,873.5c-6.9-9.3-54.3-106.2-55-111.9c15-2.1,24.6-13.4,24.7-25.2c0-9.4-9.8-12.3-13.9-8.2
	c-2.8,2.8-1,7.3,1.8,7.5c0,4.3-2.4,5.6-6,8.8c-3.5,3.1-15.5-0.8-20-2.5c-7-2.7-13.5-6.5-21.9-11.2l0,0c-10-5.4-14.4-7-19.3-8.6l0,0
	c-18.3-4.8-26.2,0.1-31.6,2.9l0.1,0.1h-0.2c-4.1,2.4-6,3.9-9.7,4.7l-1.5-0.6c-1.1-0.4-1.6-7.2-0.1-10.2c2.7-5.5,11.8-6.3,13.5-16
	c1.4-7.7-3.3-13.2-9.4-18.4h0.1c-0.1,0-2.1-1.8-2.3-2c-1-0.9-1.8-2.1-2.6-3.2c-3-4.1-6.1-3.1-5.6-3.1c-5.5,0.5-6.3,5.1-8.3,6.8
	l-2.1,1.8h0.1c-2.7,2.4-7.3,6-8.9,12.2c-1.8,7,1.3,12.1,7.4,16.6c4.1,3,7.8,4.7,6.6,13.2c-0.5,3.7-1.6,3.4-4,2.6
	c-11.6-4.1-18.9-20.3-61.4,2.6l0,0c-1.6,0.9-1.7,0.9-3.5,2v0.1c-7.2,3.6-14.4,8-24,10.3c-2.8,0.7-5.8,1.7-8.8,1.1
	c-5.1-1-9.5-6.5-9.1-9.9c0,0.1,1.6-0.7,1.8-0.9c3.4-3,0.4-9.8-6.5-8.3c-15.1,3.1-6.4,33,17.3,34.9c-0.4,3-31.6,71.7-54.7,111.1
	c-0.7,1.7-1.7,2.4-1.1,4.1c0.8,2.3,4.7,4.4,7.1,5.2c0.4,0,0.4,0,0.4,0c3.8,13.6,15,25.9,24.8,31.9c13.7,8.4,34,8.4,42.8,7
	c16.5-2.6,39.3-15.7,45.7-33.3c0.9-2.4,0.9-2.4,2-5c4.2,0,6.2-4.4,6.8-5.2c0.2-2.6-0.8-4.4-3.7-5.2c-8.3-17-10.1-13.1-28.1-54.9
	c-20.6-47.8-14.6-42.7-23.4-58c0.7-0.4,1.4-0.7,2.1-1.1c-0.1,0.1-0.1,0.2-0.1,0.3c3.3-1.7,9-7.5,18-12.1v-0.2
	c4.8-1.7,5.4-1.9,6.6-2.5c6.2-0.8,24.1-4.8,39.4,17.8v0.2c1.3,2.4,5.3,11.6,5.9,13.8c-6.5,0.7-6.8,6.4-7.2,12.2l0.2-0.1
	c0,1.7,0.3,3.2,0.7,4.8h-0.2c0.5,0.9,0.3,0.5,0.6,1.6l0.2-0.1c1.2,2.1,2.8,4.2,4.6,6.1l0.5,1.7c1.1,3.4-3.5,5.6-4.1,11.8
	c-0.6,6.4,2.6,9,2.4,12.4c-0.4,4.5-2.4,5.8-0.4,11.1v0.1c0.6,1,1,2.1,1.4,3.2c0.6,1.3,1.5,2,1.5,3.5c0,1.2-0.6,2.4-0.9,3.5
	c-5.5,16.7,8,22.5-16.7,64.5l0,0c-4.9,8.5-7.7,11.7-3.8,23.3c3.5,10.5-0.5,10.4-11.8,19.5l0.1,0.1c-0.7,0.6-18.8,19.2-19.4,19.8
	c-0.7,0.7,3.2,3.7,3.7,4c3.4,2,5.5,1.9,15.9,5.4c36.8,12.1,76.4,8.6,106.7-4.5c2.8-1.3,4.9-2.9,4.7-5.8c0,0-2.5-1.8-2.7-2.1
	c-0.1-0.1-8.3-8.6-8.3-8.7c-8.4-9-7.4-7.5-11.1-10.6h-0.1c-13.1-9.6-11-8.4-7-22.9l-0.2,0.1c1.1-6.4-0.8-9.4-3.4-14.7l-0.1,0.1
	c-1.6-2.8-2.2-3.4-3.9-6.8l0,0c-8.4-16.4-10.5-22-12.9-31.3c0,0-0.3-2.2-0.4-3.4l0,0c-0.2-3.9-0.2-5.8,0-9.1h-0.1
	c0.3-6.3,0.4-9.6-0.7-14.7l0,0c-0.1-0.2,0,0-0.3-1.3h-0.1c-0.6-2-1.3-3.8-0.9-5.5c0.3-1.2,1-3.5,2.2-4.2c1.5-3.2,1.6-6.3,0.6-9.6
	c-2.2-7.3,5.8-11.2-1-22.3c-2-3.2-1.7-3.2-1.1-6.5c0.5-0.3,0.8-0.5,1.1-1v0.1l3-3.8c2.5-3.3,4.7-18.2-4.8-19.8l-0.2,0.2h-0.1
	c0.9-2.5,4.7-11.3,5-12.1v-0.1c7.7-13.7,19.2-19.9,29.5-20.6c2.6-0.2,2.8-0.2,8.2,0.3v-0.1l0.1,0.2c5.8,1.3,7.7,2.2,12.9,4.9v0.1
	c3,1.8,2.4,1.4,13,9.3l-0.2-0.4c1.2,0.7,2.4,1.4,3.7,2c-9,14-4.5,16.8-26.8,65.4c-17.8,39-16,29.6-24.9,47.5c-2.9,0.8-3.9,2.5-3.7,5
	c0.5,0.8,2.4,5.3,6.8,5.3c4.5,11.2,2,7.8,6.2,13.4c8.4,11.3,21.3,19.7,34.4,23.3c16.1,4.5,36.4,1.8,46-3.4
	c13.2-7.1,24.3-19,28.7-33.9c1.9-0.2,7.2-3.1,7.6-5.7C1409.1,875.4,1409,874.5,1408.1,873.5z M1174.1,802.1
	c8.6,25,29.4,66.5,31.8,69.6c-5,0.3-5.2,0.5-17.1,0.1c-39.3-1.2-11.5,1.7-87.1-0.6c2.8-8.7,8.7-15.6,13-23.9
	c5.3-10.4,10-21.1,15.1-31.4c9.3-19,17.2-34.3,22.2-53.9c1.7,0,3.4-0.1,5.6-0.6C1161.1,765.3,1172.4,797.2,1174.1,802.1z
	 M1192.6,736.1c0.2-0.2,0.3-0.4,0.5-0.7C1193,735.6,1192.8,735.9,1192.6,736.1z M1223.6,747.4L1223.6,747.4
	C1223.5,747.3,1223.6,747.3,1223.6,747.4C1223.7,747.2,1223.6,747.3,1223.6,747.4z M1242.1,754c0-0.1-0.1-0.1-0.1-0.2
	c0.1,0,0.1,0,0.1,0C1242.1,753.9,1242.1,754,1242.1,754z M1279.1,744.1L1279.1,744.1c0.1-0.1,0.2,0,0.2,0H1279.1z M1366.7,872
	c-15.5,0.8-31.1-0.6-41.2-0.5c-14-0.1-21.1,1-32.7,0.2c0.5-0.4,0.2-0.2,0.8-0.7c1-2.3,0.7-3,3.7-8.1c4.6-7.4,19.5-39.6,25.4-55.6
	c16.3-44.1,14.7-41.7,18.4-46.1c1.8,0.4,3.6,0.6,5.5,0.7c5.5,21.6,12.9,34.4,31.9,74.4c11.7,24.2,15.2,24.9,18.4,35.1
	C1397,871.3,1385.7,871.3,1366.7,872z"/>
<g>
	<path class="st1" d="M163,821.5c-9.9,0-17.4-2.4-22.5-7.2c-5.2-4.8-7.8-11.6-7.8-20.5c0-8.6,2.4-18.2,7.3-28.8l12.8,5.5
		c-2.5,7.5-3.8,13.5-3.8,17.8c0,9.2,5.8,13.8,17.4,13.8c9.4,0,15.7-2.2,19-6.5c-5.6-1.2-10.9-2.8-16-4.8l3.3-17.7
		c9.8,2.6,19.2,3.9,28.2,3.9h1.7v20.3h-1.5h-2.2c-1.4,7.2-5.2,13.1-11.4,17.5C181.3,819.3,173.2,821.5,163,821.5z M173.3,845.7
		l-8.7-7.8L158,846l-10.2-9.1l8.3-10.7l8.7,8.1l6.6-8.5l10.3,9.6L173.3,845.7z"/>
	<path class="st1" d="M202.6,797.5c-1,0-1.9-1-2.7-3c-0.7-2-1.1-4.4-1.1-7.2s0.4-5.2,1.1-7.2c0.7-2,1.6-3,2.7-3h1.5
		c3.6,0,6-0.5,7.2-1.5c1.3-1,1.9-2.9,1.9-5.8V716l16.2-1.5v49.6c0,4.6,0.9,7.9,2.6,9.9c1.7,2,4.8,3,9.3,3h1.2v20.3h-3.6
		c-6.6,0-12-2.2-16.2-6.5c-3.8,4.3-10.3,6.5-19.5,6.5h-0.6L202.6,797.5L202.6,797.5z"/>
	<path class="st1" d="M242.3,797.5c-1,0-1.9-1-2.7-3c-0.7-2-1.1-4.4-1.1-7.2s0.4-5.2,1.1-7.2c0.7-2,1.6-3,2.7-3h24.1v20.3h-24.1
		L242.3,797.5L242.3,797.5z"/>
	<path class="st1" d="M286.1,824.5l-8.7-7.8l-6.6,8.1l-10.2-9.1l8.3-10.7l8.7,8.1l6.6-8.5l10.3,9.6L286.1,824.5z M266.4,797.5
		c-1,0-1.9-1-2.7-3c-0.7-2-1.1-4.4-1.1-7.2s0.4-5.2,1.1-7.2s1.6-3,2.7-3h1.6c4.7,0,7.8-0.6,9.3-1.7c1.5-1.1,2.3-2.6,2.3-4.6V754
		l15.5-1.1v15.8c0,2.8-0.1,5.2-0.4,7.1c3.4,0.8,7.4,1.3,12,1.3h0.6v20.3h-3.6c-7.1,0-12.7-1.6-16.8-4.8c-4,3.2-9.7,4.8-17.2,4.8
		L266.4,797.5L266.4,797.5z"/>
	<path class="st1" d="M307.3,797.5c-1,0-1.9-1-2.7-3c-0.7-2-1.1-4.4-1.1-7.2s0.4-5.2,1.1-7.2s1.6-3,2.7-3h24.2v20.3h-24.2V797.5z"/>
	<path class="st1" d="M331.5,797.5c-1,0-1.9-1-2.7-3c-0.7-2-1.1-4.4-1.1-7.2s0.4-5.2,1.1-7.2s1.6-3,2.7-3h4.8
		c14.8,0,25.9-0.6,33.4-1.7c-8-8.6-13.6-12.9-16.8-12.9c-1.5,0-2.7,0.4-3.6,1.1c-0.9,0.8-2,2.2-3.1,4.3l-11.3-4.6
		c2.2-6.6,4.8-11.4,7.8-14.5c3-3,6.7-4.5,11-4.5c1,0,2.1,0.1,3.3,0.3c1.1,0.2,2.3,0.6,3.5,1.3c1.2,0.6,2.3,1.2,3.2,1.7
		c0.9,0.5,2.1,1.3,3.5,2.5c1.4,1.1,2.4,2,3.1,2.6s1.8,1.6,3.4,3.2c1.6,1.6,2.6,2.6,3.2,3.1s1.7,1.7,3.4,3.5c1.7,1.8,2.8,2.9,3.2,3.3
		c4.5,4.7,8,7.8,10.3,9.1c2.3,1.4,5.5,2.1,9.4,2.1h1.5v20.3h-2.2c-3.8,0-7.1-0.5-9.9-1.6s-5.7-2.9-8.7-5.4c-15.7,4.6-32.7,7-50.9,7
		h-1.5L331.5,797.5L331.5,797.5z M363,801.2l11.3,10.6l-9.2,11.4L353.8,813L363,801.2z"/>
	<path class="st1" d="M404.6,797.5c-1,0-1.9-1-2.7-3c-0.7-2-1.1-4.4-1.1-7.2s0.4-5.2,1.1-7.2s1.6-3,2.7-3h0.8c3.8,0,7-0.3,9.5-0.9
		c0.1-3.4,0.2-8.5,0.2-15.5c0-2.6-0.1-17.4-0.3-44.6l16.5-1.5v43.9c0,16.4-0.9,27.5-2.7,33.3c-2.6,1.5-6.1,2.9-10.5,4
		s-8.7,1.7-13,1.7H404.6z"/>
	<path class="st1" d="M459.2,797.5h-16.4V716l16.4-1.5V797.5z"/>
	<path class="st1" d="M500.1,820.5c-3.2,0-6.8-0.5-10.7-1.4l1.3-16.7c1.7,0.3,3.4,0.5,5.2,0.5c6.3,0,10.9-2,13.7-6
		c2.9-4,4.3-8.9,4.3-14.6c0-5.4-1.4-13.5-4.3-24.2l15.2-5.1c0.1,0.7,0.4,2,0.9,3.9s0.8,3.3,1,4.1s0.5,1.9,0.9,3.3
		c0.4,1.4,0.7,2.6,1,3.4c0.3,0.8,0.6,1.7,1,2.7s0.9,1.9,1.4,2.6c1.8,2.8,5.2,4.2,10.2,4.2h2.5v20.3h-3.8c-5.5,0-9.7-1.3-12.7-3.8
		c-1.4,8.1-4.3,14.5-8.8,19.4C514,818,507.9,820.5,500.1,820.5z M513,726.8l11.3,10.6l-9.2,11.4l-11.3-10.2L513,726.8z"/>
	<path class="st1" d="M564.6,747l-8.7-7.8l-6.6,8.1l-10.2-9.1l8.3-10.7l8.7,8.1l6.6-8.5l10.3,9.6L564.6,747z M543.7,797.5
		c-1,0-1.9-1-2.7-3c-0.7-2-1.1-4.4-1.1-7.2s0.4-5.2,1.1-7.2s1.6-3,2.7-3h1.6c4.7,0,7.8-0.6,9.3-1.7c1.5-1.1,2.3-2.6,2.3-4.6V754
		l15.5-1.1v15.8c0,2.8-0.1,5.2-0.4,7.1c3.4,0.8,7.4,1.3,12,1.3h0.6v20.3H581c-7.1,0-12.7-1.6-16.8-4.8c-4,3.2-9.7,4.8-17.2,4.8
		L543.7,797.5L543.7,797.5z"/>
	<path class="st1" d="M584.6,797.5c-1,0-1.9-1-2.7-3c-0.7-2-1.1-4.4-1.1-7.2s0.4-5.2,1.1-7.2c0.7-2,1.6-3,2.7-3h24.1v20.3h-24.1
		V797.5z"/>
	<path class="st1" d="M608.8,797.5c-1,0-1.9-1-2.7-3c-0.7-2-1.1-4.4-1.1-7.2s0.4-5.2,1.1-7.2s1.6-3,2.7-3h2.2c5.9,0,11-0.3,15.4-1
		c-3.3-3.7-6.1-8.1-8.4-13.4c-2.3-5.3-3.5-11.1-3.5-17.3c8.5-3,18-4.5,28.5-4.5c11.5,0,20.9,2,28.1,6.1c-1.1,11.2-5.3,21-12.6,29.5
		c3.4,0.5,7.2,0.7,11.2,0.7h6.1v20.3h-5c-11.5,0-21.1-2.3-28.9-7c-8.5,4.6-18.6,7-30.3,7L608.8,797.5L608.8,797.5z M641.7,757.5
		c-3.1,0-6.5,0.3-10.1,0.9c3.3,6.1,7.1,10.8,11.4,14.1c3.9-3,7.6-7.4,11-13.3C650.1,758.2,646,757.5,641.7,757.5z"/>
	<path class="st1" d="M675.8,797.5c-1,0-1.9-1-2.7-3c-0.7-2-1.1-4.4-1.1-7.2s0.4-5.2,1.1-7.2s1.6-3,2.7-3h24.1v20.3h-24.1V797.5z"/>
	<path class="st1" d="M717.1,739v-8.3c9.3-2.7,14.6-4.3,16-4.8c-2.5-0.7-4.5-1.9-6-3.7s-2.3-3.9-2.3-6.2c0-3.1,1.1-5.8,3.3-8.1
		s4.8-3.4,8-3.4c2.7,0,5,1.1,6.8,3.3s2.7,4.9,2.7,8.2c0,2.4-0.5,4.9-1.6,7.4c-1.6,3.7-4.3,6.7-8.1,9
		C732.1,734.3,725.8,736.7,717.1,739z M731.6,715.5c0,2.1,2.3,3.9,6.9,5.5c0.3-1,0.4-2.2,0.4-3.5s-0.4-2.6-1.2-3.6s-1.7-1.5-2.8-1.5
		c-1,0-1.8,0.3-2.4,0.9C731.9,713.9,731.6,714.5,731.6,715.5z"/>
	<path class="st1" d="M732.1,797.5c-7.3,0-13.9-1.7-19.6-5c-3.3,3.3-7.2,4.9-11.7,4.9H700c-1,0-1.9-1-2.7-3c-0.7-2-1.1-4.4-1.1-7.2
		s0.4-5.2,1.1-7.2c0.7-2,1.6-3,2.7-3h2c0.7,0,1.4-0.1,2-0.3c0.7-0.2,1.3-0.6,1.8-1.3c0.6-0.6,1-1.2,1.5-1.7c0.4-0.5,0.9-1.3,1.4-2.3
		s0.9-1.9,1.3-2.6c0.3-0.7,0.8-1.7,1.4-3c0.6-1.3,1-2.3,1.3-3c2.7-5.6,5.6-10,8.8-13s7.6-4.6,13.2-4.6c6.2,0,11.2,2.6,15.1,7.7
		c3.9,5.1,5.9,11.5,5.9,19c0,8.5-1.4,16-4.2,22.7C746.7,796.7,740.3,797.5,732.1,797.5z M735,779c2,0,4-0.1,6.1-0.3
		c0.1-1.3,0.2-2.8,0.2-4.6c0-3-0.6-5.5-1.8-7.5c-1.2-2.1-3-3.1-5.4-3.1c-2.3,0-4.2,0.9-5.8,2.6c-1.5,1.7-3.6,5.4-6.3,11.1
		C725.9,778.5,730.2,779,735,779z"/>
	<path class="st1" d="M881.4,797.5c-8.5,0-15-2-19.7-5.9c-6.6,4.7-18,7.1-34.3,7.1c-7.4,0-13.6-0.7-18.6-2s-8.8-3.3-11.4-5.9
		c-2.6-2.6-4.4-5.4-5.4-8.5c-1-3-1.5-6.6-1.5-10.7c0-6.2,1.3-13.6,4-22.3l13.9,3c-0.9,5.1-1.4,9.1-1.4,12.1c0,3.5,0.6,6.2,1.7,8
		c1.2,1.8,3.5,3.2,7,4.2s8.6,1.5,15.3,1.5c6.9,0,12.1-0.4,15.8-1.1c3.7-0.8,5.9-1.6,6.7-2.5s1.2-2.1,1.2-3.6v-16.7l15.5-1.1v19.7
		c0,1.1,0,1.9-0.1,2.4c3.6,1.3,8.1,1.9,13.7,1.9h1.2v20.3L881.4,797.5L881.4,797.5z M829.6,804.8l11.3,10.6l-9.2,11.4l-11.3-10.2
		L829.6,804.8z"/>
	<path class="st1" d="M905.9,747l-8.7-7.8l-6.6,8.1l-10.2-9.1l8.3-10.7l8.7,8.1l6.6-8.5l10.3,9.6L905.9,747z M885,797.5
		c-1,0-1.9-1-2.7-3c-0.7-2-1.1-4.4-1.1-7.2s0.4-5.2,1.1-7.2c0.7-2,1.6-3,2.7-3h1.6c4.7,0,7.8-0.6,9.3-1.7c1.5-1.1,2.3-2.6,2.3-4.6
		V754l15.5-1.1v15.8c0,2.8-0.1,5.2-0.4,7.1c3.4,0.8,7.4,1.3,12,1.3h0.6v20.3h-3.6c-7.1,0-12.7-1.6-16.8-4.8c-4,3.2-9.7,4.8-17.2,4.8
		L885,797.5L885,797.5z"/>
	<path class="st1" d="M925.9,797.5c-1,0-1.9-1-2.7-3c-0.7-2-1.1-4.4-1.1-7.2s0.4-5.2,1.1-7.2c0.7-2,1.6-3,2.7-3h2
		c10.8,0,19.2-0.9,25.1-2.7c-5.5-9.6-13.5-16.3-23.8-20v-22.9c13.8-10.1,29.4-17.1,46.7-20.9v19c-11.5,2.8-21.8,6.9-30.8,12.3
		c2.9,1.6,5.6,3.4,8,5.4s4.6,4.3,6.7,6.9c2,2.6,3.5,4.6,4.5,6.1c1,1.4,2.3,3.6,4.1,6.4c0.4,0.6,1.1,1.7,1.9,3.3
		c0.9,1.6,1.5,2.6,1.9,3.1s0.9,1.2,1.6,2s1.4,1.4,2.1,1.7s1.6,0.4,2.6,0.4h1.4v20.3h-1.7c-6.5,0-11.6-2.2-15.4-6.5
		c-8.8,4.3-20.3,6.5-34.4,6.5L925.9,797.5L925.9,797.5z"/>
	<path class="st1" d="M1012,797.5c-7.3,0-13.9-1.7-19.6-5c-3.3,3.3-7.2,4.9-11.7,4.9h-0.8c-1,0-1.9-1-2.7-3c-0.7-2-1.1-4.4-1.1-7.2
		s0.4-5.2,1.1-7.2c0.7-2,1.6-3,2.7-3h2c0.7,0,1.4-0.1,2-0.3c0.7-0.2,1.3-0.6,1.8-1.3c0.6-0.6,1-1.2,1.5-1.7c0.4-0.5,0.9-1.3,1.4-2.3
		s0.9-1.9,1.3-2.6c0.3-0.7,0.8-1.7,1.4-3c0.6-1.3,1-2.3,1.3-3c2.7-5.6,5.6-10,8.8-13s7.6-4.6,13.2-4.6c6.2,0,11.2,2.6,15.1,7.7
		c3.9,5.1,5.9,11.5,5.9,19c0,8.5-1.4,16-4.2,22.7C1026.6,796.7,1020.2,797.5,1012,797.5z M1014.9,779c2,0,4-0.1,6.1-0.3
		c0.1-1.3,0.2-2.8,0.2-4.6c0-3-0.6-5.5-1.8-7.5c-1.2-2.1-3-3.1-5.4-3.1c-2.3,0-4.2,0.9-5.8,2.6c-1.5,1.7-3.6,5.4-6.3,11.1
		C1005.8,778.5,1010.1,779,1014.9,779z"/>
	<path class="st1" d="M183.6,934.5H177c-7.9,0-13.1-2.9-15.6-8.8c-3.1,0.5-6,0.7-8.6,0.7c-7.4,0-13.3-1.6-17.6-4.8s-6.5-8-6.5-14.4
		c0-7.3,2.1-13.7,6.3-19.1c4.2-5.4,9.6-9.5,16.2-12.1c6.6-2.6,13.9-3.9,21.9-3.9V906c0,3.4,0.6,5.7,1.9,6.7c1.3,1.1,3.7,1.6,7.3,1.6
		h1.3L183.6,934.5L183.6,934.5z M155.9,908.8c1.2,0,2.1,0,2.7-0.1v-0.8v-16.6c-5,0.8-9,2.4-12,4.7s-4.5,4.5-4.5,6.6
		c0,1.8,1.2,3.2,3.6,4.4C148.2,908.2,151.6,908.8,155.9,908.8z"/>
	<path class="st1" d="M203.2,961.7l-8.7-7.8l-6.6,8.1l-10.2-9.1l8.3-10.7l8.7,8.1l6.6-8.5l10.3,9.6L203.2,961.7z M183.6,934.5
		c-1,0-1.9-1-2.7-3c-0.7-2-1.1-4.4-1.1-7.2s0.4-5.2,1.1-7.2c0.7-2,1.6-3,2.7-3h1.6c4.7,0,7.8-0.6,9.3-1.7c1.5-1.1,2.3-2.6,2.3-4.6
		v-16.7l15.5-1.1v15.8c0,2.8-0.1,5.2-0.4,7.1c3.4,0.8,7.4,1.3,12,1.3h0.6v20.3h-3.6c-7.1,0-12.7-1.6-16.8-4.8
		c-4,3.2-9.7,4.8-17.2,4.8L183.6,934.5L183.6,934.5z"/>
	<path class="st1" d="M224.5,934.5c-1,0-1.9-1-2.7-3c-0.7-2-1.1-4.4-1.1-7.2s0.4-5.2,1.1-7.2c0.7-2,1.6-3,2.7-3h0.8
		c4.5,0,8.4-0.4,11.4-1.1c-0.3-8.6-1.3-17-3-25l15.2-3.5c1.4,7,2.1,14.6,2.1,22.7c0,8.9-0.8,16.1-2.5,21.6c-2.6,1.5-6.1,2.9-10.5,4
		s-8.7,1.7-13,1.7H224.5z M231.9,860.5l11.3,10.6l-9.2,11.4l-11.3-10.2L231.9,860.5z"/>
	<path class="st1" d="M273,957.8c-3.9,0-7.8-0.6-11.6-1.7l1.3-16.7c2.3,0.4,4.9,0.6,7.7,0.6c5.2,0,9.6-0.8,13.1-2.5s5.9-3.6,7.3-5.7
		c-2.6,0.4-6,0.6-10.4,0.6c-13.2,0-19.8-7.5-19.8-22.5c0-8.3,2.1-15.3,6.4-21.1s9.5-8.7,15.8-8.7c6.6,0,12.2,3,16.8,9.1
		c4.5,6.1,7,14.4,7.4,25.1h5.2v20.3h-7.4C300.2,950.2,289.6,957.8,273,957.8z M286.5,914.2h5.9c-0.2-2.3-0.7-4.6-1.5-6.9
		c-0.8-2.3-2-4.4-3.7-6.3c-1.6-1.9-3.4-2.8-5.4-2.8c-2.4,0-4.2,0.9-5.5,2.6c-1.3,1.7-1.9,3.7-1.9,6
		C274.4,911.8,278.4,914.2,286.5,914.2z"/>
	<path class="st1" d="M312.2,934.5c-1,0-1.9-1-2.7-3c-0.7-2-1.1-4.4-1.1-7.2s0.4-5.2,1.1-7.2s1.6-3,2.7-3h0.8
		c4.5,0,8.4-0.4,11.4-1.1c-0.3-8.6-1.3-17-3-25l15.2-3.5c1.4,7,2.1,14.6,2.1,22.7c0,8.9-0.8,16.1-2.5,21.6c-2.6,1.5-6.1,2.9-10.5,4
		s-8.7,1.7-13,1.7H312.2z M319.6,860.5l11.3,10.6l-9.2,11.4l-11.3-10.2L319.6,860.5z"/>
	<path class="st1" d="M376,914.2v20.3h-5c-7.7,0-13.2-2.3-16.4-7c-3.3-4.7-4.9-11.4-4.9-20.2v-54.2l16.4-1.5v51.8
		c0,7.2,2.9,10.7,8.8,10.7h1.1V914.2z"/>
	<path class="st1" d="M376,934.5c-1,0-1.9-1-2.7-3c-0.7-2-1.1-4.4-1.1-7.2s0.4-5.2,1.1-7.2s1.6-3,2.7-3h2.9c1.5,0,4-0.2,7.7-0.6
		c-2.6-4.3-3.9-9.4-3.9-15.1c0-7.8,2.1-13.8,6.3-17.9c4.2-4.1,9.5-6.2,15.8-6.2c6.1,0,11.2,2,15.3,6c4.1,4,6.2,9.5,6.2,16.4
		c0,6.4-1.7,12-5.2,16.9c3.1,0.3,6.1,0.5,8.9,0.5h3.5v20.3h-7.1c-10.1,0-18.1-1.6-23.9-4.7c-7.1,3.1-15.1,4.7-24,4.7L376,934.5
		L376,934.5z M412.8,870.2l-8.7-7.8l-6.6,8.1l-10.2-9.1l8.3-10.7l8.7,8.1l6.6-8.5l10.3,9.6L412.8,870.2z M395.8,899
		c0,4.3,2.7,8.4,8.2,12.1c5.9-3.1,8.8-6.6,8.8-10.3c0-2.3-0.9-4.2-2.6-5.8s-4-2.3-6.6-2.3c-2.2,0-4,0.6-5.5,1.9
		C396.5,895.8,395.8,897.3,395.8,899z"/>
	<path class="st1" d="M433.5,934.5c-1,0-1.9-1-2.7-3c-0.7-2-1.1-4.4-1.1-7.2s0.4-5.2,1.1-7.2s1.6-3,2.7-3h0.8c3.8,0,7-0.3,9.5-0.9
		c0.1-3.4,0.2-8.5,0.2-15.5c0-2.6-0.1-17.4-0.3-44.6l16.5-1.5v43.9c0,16.4-0.9,27.5-2.7,33.3c-2.6,1.5-6.1,2.9-10.5,4
		s-8.7,1.7-13,1.7H433.5z"/>
	<path class="st1" d="M488.2,934.5h-16.4v-81.4l16.4-1.5V934.5z"/>
	<path class="st1" d="M560.7,935.8c-7.4,0-13.6-0.7-18.7-2c-5.1-1.3-8.8-3.3-11.4-5.9c-2.6-2.6-4.4-5.4-5.5-8.5
		c-1-3-1.6-6.6-1.6-10.7c0-6.2,1.3-13.6,4-22.3l13.9,3c-0.9,5.1-1.4,9.1-1.4,12.1c0,3.4,0.6,6.1,1.8,7.9c1.2,1.9,3.5,3.3,7.1,4.3
		c3.5,1,8.6,1.5,15.2,1.5c10.1,0,18.2-1,24.4-3c-0.1-6.7-1.1-14.5-2.9-23.5l16.9-3.5c1.6,7.7,2.4,15.3,2.4,22.7
		c0,7.7-1,14.1-2.9,19.1C593.7,932.8,580,935.8,560.7,935.8z M574.7,888.5l-8.7-7.8l-6.6,8.1l-10.2-9.1l8.3-10.7l8.7,8.1l6.6-8.5
		l10.3,9.6L574.7,888.5z"/>
	<path class="st1" d="M632.4,934.5H616v-81.4l16.4-1.5V934.5z"/>
	<path class="st1" d="M677,917.5c0,5.6-0.5,10.7-1.5,15.3s-2.5,8.9-4.7,12.7c-2.1,3.8-5.1,6.8-8.8,8.9c-3.7,2.1-8.2,3.2-13.3,3.2
		c-3.2,0-6.8-0.5-10.7-1.4l1.3-16.7c1.7,0.3,3.4,0.5,5.2,0.5c6.1,0,10.4-2,13.1-5.9s3.9-8.8,3.9-14.6c0-4.6-1.5-12.6-4.6-24.2
		l16.6-5.1C675.9,899.3,677,908.5,677,917.5z"/>
	<path class="st1" d="M714.4,914.2v20.3h-5c-7.7,0-13.2-2.3-16.4-7c-3.3-4.7-4.9-11.4-4.9-20.2v-54.2l16.4-1.5v51.8
		c0,7.2,2.9,10.7,8.8,10.7h1.1L714.4,914.2L714.4,914.2z"/>
	<path class="st1" d="M805,934.5c-5.4,0-10.3-1.5-14.8-4.6c-3.6,3.4-8.6,5.1-14.8,5.1c-5.9,0-10.6-1.8-13.9-5.4
		c-3.4,3.6-8.7,5.4-15.9,5.4c-6.3,0-11.7-1.6-16.4-4.9c-3.7,2.9-8.3,4.3-13.6,4.3h-1.2c-1,0-1.9-1-2.7-3c-0.7-2-1.1-4.4-1.1-7.2
		s0.4-5.2,1.1-7.2s1.6-3,2.7-3h2.7c2.5,0,4.4-0.7,5.7-2.1c1.3-1.4,2.1-3.9,2.4-7.7l0.5-7.5l14.5-1.1l-0.4,8.7
		c-0.1,2.4-0.4,4.9-0.8,7.4c2.2,1.1,4.5,1.7,7.1,1.7s4.7-0.7,6.3-2.1c1.6-1.4,2.4-3.5,2.4-6.3v-9.5l14.6-1v13.2
		c0,4.3,2.3,6.5,6.9,6.5c4.2,0,6.3-1.8,6.3-5.4v-14.9l14.6-1.4v16.2c0,1.1-0.1,2.7-0.2,4.7c1.8,0.5,4.8,0.8,8.8,0.8h1.6v20.3H805z
		 M770.1,888l-8.5-7.7l-6.9,8.5l-10-9l8.2-10.5l8.5,8l6.9-8.8l10,9.4L770.1,888z M759.4,855.2l9,8.5l-7.3,9.1l-9-8.1L759.4,855.2z"
		/>
	<path class="st1" d="M828.2,884l-8.7-7.8l-6.6,8.1l-10.2-9.1l8.3-10.7l8.7,8.1l6.6-8.5l10.3,9.6L828.2,884z M807.3,934.5
		c-1,0-1.9-1-2.7-3c-0.7-2-1.1-4.4-1.1-7.2s0.4-5.2,1.1-7.2s1.6-3,2.7-3h1.6c4.7,0,7.8-0.6,9.3-1.7c1.5-1.1,2.3-2.6,2.3-4.6v-16.7
		L836,890v15.8c0,2.8-0.1,5.2-0.4,7.1c3.4,0.8,7.4,1.3,12,1.3h0.6v20.3h-3.6c-7.1,0-12.7-1.6-16.8-4.8c-4,3.2-9.7,4.8-17.2,4.8
		L807.3,934.5L807.3,934.5z"/>
	<path class="st1" d="M909.8,934.7c-6.2,0-11-1.6-14.4-4.9c-3.4,3.6-8.7,5.4-16,5.4c-6.3,0-11.7-1.6-16.4-4.9
		c-3.7,2.9-8.3,4.3-13.6,4.3h-1.2c-1,0-1.9-1-2.7-3c-0.7-2-1.1-4.4-1.1-7.2s0.4-5.2,1.1-7.2c0.7-2,1.6-3,2.7-3h2.7
		c2.5,0,4.4-0.7,5.7-2.1c1.3-1.4,2.1-3.9,2.4-7.7l0.5-7.5l14.5-1.1l-0.4,8.7c-0.1,2.4-0.4,4.9-0.8,7.4c2.2,1.1,4.5,1.7,7.1,1.7
		c5.8,0,8.7-2.8,8.7-8.3v-9.5l14.6-1v13c0,4.3,2.3,6.5,6.9,6.5c2.2,0,4.7-0.4,7.4-1.3c-0.1-3.2-1.2-10-3-20.3l15.2-3.5
		c1.4,6.9,2.1,12.9,2.1,18.2c0,8.9-0.8,16.1-2.5,21.6C922.8,932.8,916.3,934.7,909.8,934.7z"/>
	<path class="st1" d="M1005,934.5c-7.7,0-13.7-2.7-17.9-8c-5.9,5.7-13.8,8.6-23.8,8.6c-6.8,0-12.9-1-18.2-2.9v-18.9
		c3.1,0.4,6.9,0.6,11.5,0.7c0-12.4-4.9-28.1-14.8-47.2l15.5-9.5c4.1,8.3,7.3,16.5,9.4,24.5c2.2,8,3.3,16.7,3.3,26.1
		c0,2.5-0.1,4.4-0.2,5.7c4.9-0.6,8.1-1.9,9.6-3.9s2.3-5.1,2.3-9.2v-47.4l16.2-1.5v49.8c0,5,0.6,8.4,1.8,10.1
		c1.2,1.7,3.1,2.6,5.9,2.6h2.7v20.3h-3.3V934.5z M969.2,965c-8.3,1.6-16.2,4-23.9,7.3l-2.4-7.9c2-1.1,4.2-2.1,6.5-3
		c-2.4-2.2-3.6-5.3-3.6-9.3c0-3.6,1.1-6.5,3.4-8.6c2.2-2.2,5-3.3,8.4-3.3c3.2,0,6.2,0.8,8.9,2.3L964,950c-2.1-0.6-4-0.9-5.6-0.9
		c-1.5,0-2.7,0.4-3.6,1.1c-0.9,0.7-1.4,1.7-1.4,2.8c0,1.3,0.4,2.5,1.3,3.5c0.9,1,2.1,1.5,3.8,1.5s4.8-0.5,9.3-1.5L969.2,965z"/>
	<path class="st1" d="M1008.2,934.5c-1,0-1.9-1-2.7-3c-0.7-2-1.1-4.4-1.1-7.2s0.4-5.2,1.1-7.2s1.6-3,2.7-3h0.8c3.8,0,7-0.3,9.5-0.9
		c0.1-3.4,0.2-8.5,0.2-15.5c0-2.6-0.1-17.4-0.3-44.6l16.5-1.5v43.9c0,16.4-0.9,27.5-2.7,33.3c-2.6,1.5-6.1,2.9-10.5,4
		s-8.7,1.7-13,1.7H1008.2z"/>
</g>
<circle class="st2" cx="1249.3" cy="838.4" r="179.2"/>
<g>
	<path d="M30952.7,12530.1c-0.9,5.6-3.5,21.4-4.8,26.4h-59v-4.7c10.9-1,12.1-2.1,12.1-16.5v-64.2c0-14.2-0.9-15.2-11.5-16.1v-4.9
		h34.6v4.9c-10.1,0.9-11.3,1.8-11.3,16.1v63.7c0,9,0.6,12.1,3,13.8c2.5,1.8,6.8,2.1,11.9,2.1c6.8,0,11.3-1,14.2-5.3
		c2.4-3.1,4.8-8.5,6.9-16.3L30952.7,12530.1z"/>
	<path d="M30987.4,12483.2c16.2,0,28.2,16.4,28.2,36.3c0,26.4-15.4,38.9-28.3,38.9c-18.2,0-28.8-17.9-28.8-35.9
		C30958.5,12495.7,30975.2,12483.2,30987.4,12483.2L30987.4,12483.2z M30985.8,12488.7c-7.4,0-14.2,9.7-14.2,28.2
		c0,20.7,6.8,35.8,17.1,35.8c7.4,0,13.9-6.5,13.9-29.4c0-19.6-6-34.6-16.7-34.6H30985.8z"/>
	<path d="M31044.2,12500.9c4.2-9,9.4-17.7,15.3-17.7c4.6,0,7.7,4.4,7.7,8.4c0,3.8-1.7,7.2-4.4,8.8c-1.5,0.8-2.6,0.4-3.4-0.4
		c-2-2.3-3.4-3.4-5.6-3.4c-3.2,0-7.1,4.8-9.8,13.5v29.2c0,10.7,0.6,11.8,10.5,12.8v4.4h-30.3v-4.4c7.7-1,8.8-2,8.8-12.8v-33.9
		c0-10.4-0.7-11.1-7.8-12.4v-3.7c6.3-1.3,12.3-3.2,18.8-6.7v18.2h0.2V12500.9z"/>
	<path d="M31119,12542c-8.2,13.5-17.4,16.5-21.5,16.5c-15.6,0-24.9-16.5-24.9-34.7c0-10.9,3-20.7,8.1-28
		c5.5-7.8,12.4-12.5,19.2-12.5h0.1c10.9,0,19.5,12.2,19.5,25.2c0,3.1-0.7,4.6-3,5.3c-2.3,0.4-18.2,2.1-32.9,2.8
		c0.3,21.2,9.7,30.1,18.6,30.1c5.2,0,10.1-2.6,14.7-8.2L31119,12542z M31097,12489.4c-5.5,0-10.9,6.4-12.7,20c6.8,0,13.5,0,20.6-0.3
		c2.2-0.1,3-1,3-3.1C31107.8,12497.3,31103.7,12489.4,31097,12489.4L31097,12489.4z"/>
	<path d="M31197.4,12556.5v-4.4c7.1-1,8.6-1.8,8.6-13.4v-26.4c0-12.3-3.6-18.9-10.9-18.9c-4.1,0-8.7,3.1-13.5,8.2
		c0.2,2,0.3,3.9,0.3,6.8v31.4c0,10.3,1.2,11.3,8.1,12.3v4.4h-28v-4.4c7.6-1,8.7-1.8,8.7-12.5v-27.6c0-12.3-3.5-18.6-10.8-18.6
		c-4.8,0-9.5,4.1-13.3,8.1v38.2c0,10.5,1.1,11.5,6.9,12.5v4.4h-27.4v-4.4c8.2-1,9.4-2,9.4-12.8v-33.2c0-10.4-0.4-11.4-7.7-12.9v-4.1
		c5.5-1.1,12.6-3.2,18.6-6.5v13.4c2.7-2.4,5.5-5.4,9.3-8.4c3.4-2.7,6.5-4.5,10.5-4.5c6.1,0,11.5,5,14.2,13.4
		c3.8-3.6,7.4-6.6,10.4-9.3c2.7-2.2,6-4.1,9.6-4.1c10.1,0,16.6,9.1,16.6,25.5v30.9c0,10.9,0.9,11.3,8.2,12.5v4.4L31197.4,12556.5
		L31197.4,12556.5z"/>
	<path d="M31266.2,12556.5v-4.4c7.9-1,8.9-2,8.9-13.4v-32.9c0-10.3-0.4-11.1-8-12.8v-3.9c6.8-1.5,13.3-3.4,19-6.3v55.8
		c0,11.3,0.9,12.2,9,13.4v4.4h-28.9V12556.5z M31272.9,12460.5c0-5.3,3.2-9.2,7-9.2s6.7,3.9,6.7,9.2c0,4.7-2.9,8.8-6.8,8.8
		C31276.1,12469.3,31272.9,12465.2,31272.9,12460.5z"/>
	<path d="M31330.9,12485.9c2.5-1.9,5-2.7,6.6-2.7c14.4,0,22.8,14.7,22.8,31.1c0,24.3-15.3,40.1-31.7,44.1c-3.8-0.1-7.2-1.6-9-2.7
		v21.6c0,12,0.9,13,10.8,14.1v4.5h-31.1v-4.5c8.2-1,9.3-2.1,9.3-12.8v-73.9c0-10.3-0.7-10.7-8.3-12.1v-4c5.4-1.1,12.9-4,19.3-7.2v13
		L31330.9,12485.9z M31319.6,12544c2.8,3.6,7.7,6.4,11.9,6.4c10.6,0,17.2-12.4,17.2-29.5c0-17.9-8-27.4-16.9-27.4
		c-3.8,0-8.8,3.5-12.1,6.7L31319.6,12544L31319.6,12544z"/>
	<path d="M31402.5,12505c-2.5-9.6-6.9-16.4-13.2-16.4c-4.6,0-7.9,4.5-7.9,10.9c0,6.7,4.8,10.6,10.5,13.5c9.7,5,16.2,11,16.2,22.5
		c0,15.3-10.8,22.9-21.3,22.9c-6.6,0-12.6-3-14.7-5.4c-0.9-2.1-2.1-13.7-2.2-20.1l3.5-0.7c2.4,11,8.1,20.7,15.6,20.7
		c4.6,0,8.7-4.6,8.7-11.1c0-6.7-3.3-10.4-9.8-14.2c-7.4-4.4-16.2-10-16.2-22.9c0-11.6,7.7-21.5,19.7-21.5c5.5,0,8.9,1.5,11.5,2.9
		c1.1,3.6,2.7,13.7,2.9,17.6L31402.5,12505z"/>
	<path d="M31478.6,12552.6c-2.9,0.4-6.5,1.5-10,2.6c-3.5,1.2-6.9,2.4-9.6,3.2l-0.9-0.9v-11.6c-2.9,2.8-5.4,5.6-9,8.4
		c-3.8,2.7-6.5,4.1-10.1,4.1c-8.9,0-16.1-6.9-16.1-24.5v-31.2c0-9-1-9.7-4.3-10.7l-3.4-1.1v-3.9c2.6-0.1,6-0.7,9.6-1.1
		c3.6-0.6,7.4-1.3,9.6-1.8c-0.3,5-0.3,12.9-0.3,23.7v22c0,13.7,5.3,17.9,10.9,17.9c4.4,0,9-2.2,13.1-7.3v-37.7c0-9-1.1-10-5.2-10.9
		l-4.5-1v-3.9c3.6-0.1,8.1-0.7,12-1.3c3.8-0.3,6.8-1.1,8.8-1.6v53.9c0,8.5,1,9.6,6,10.1l3.4,0.2V12552.6z"/>
	<path d="M31555,12556.5v-4.4c7.1-1,8.6-1.8,8.6-13.4v-26.4c0-12.3-3.6-18.9-10.9-18.9c-4.1,0-8.7,3.1-13.5,8.2
		c0.2,2,0.3,3.9,0.3,6.8v31.4c0,10.3,1.2,11.3,8.1,12.3v4.4h-28v-4.4c7.6-1,8.7-1.8,8.7-12.5v-27.6c0-12.3-3.5-18.6-10.8-18.6
		c-4.8,0-9.5,4.1-13.3,8.1v38.2c0,10.5,1.1,11.5,6.9,12.5v4.4h-27.4v-4.4c8.2-1,9.4-2,9.4-12.8v-33.2c0-10.4-0.4-11.4-7.7-12.9v-4.1
		c5.5-1.1,12.6-3.2,18.6-6.5v13.4c2.7-2.4,5.5-5.4,9.3-8.4c3.4-2.7,6.5-4.5,10.5-4.5c6.1,0,11.5,5,14.2,13.4
		c3.8-3.6,7.4-6.6,10.4-9.3c2.7-2.2,6-4.1,9.6-4.1c10.1,0,16.6,9.1,16.6,25.5v30.9c0,10.9,0.9,11.3,8.2,12.5v4.4L31555,12556.5
		L31555,12556.5z"/>
</g>
</svg>
