<?xml version="1.0" ?><svg viewBox="0 0 24 24" xmlns="http://www.w3.org/2000/svg" xmlns:xlink="http://www.w3.org/1999/xlink"><defs><style>.cls-1{fill:url(#linear-gradient);}.cls-2{fill:#fff;}.cls-3{fill:none;}</style><linearGradient gradientUnits="userSpaceOnUse" id="linear-gradient" x1="12" x2="12" y1="23" y2="1"><stop offset="0" stop-color="#0066ef"/><stop offset="1" stop-color="#00b2ff"/></linearGradient></defs><title/><g data-name="Layer 2" id="Layer_2"><g data-name="Layer 3" id="Layer_3"><g id="FaceBook"><path class="cls-1" d="M23,12c0,7.11-2.33,10.26-8.45,10.88A25.38,25.38,0,0,1,12,23l-1.09,0C3.7,22.71,1,19.66,1,12,1,4,4,1,12,1S23,4,23,12Z"/><path class="cls-2" d="M14.55,10.53v2.33h3.37l-.53,3.42H14.55v6.6A25.38,25.38,0,0,1,12,23l-1.09,0v-6.7H7.83V12.86h3.08V10.29a4.68,4.68,0,0,1,1.24-3.41C13.89,5,18,6,18,6V8.86H16.22A1.67,1.67,0,0,0,14.55,10.53Z"/><rect class="cls-3" height="24" width="24"/></g></g></g></svg>